<svg width="180" height="147" viewBox="0 0 180 147" fill="none" xmlns="http://www.w3.org/2000/svg">
<path d="M131.573 0.134031C117.984 1.51038 115.859 8.46893 112.926 14.3239L121.528 15.1196C116.753 7.16193 151.048 -7.29386 145.534 26.4812C140.02 60.2562 106.408 75.2868 106.408 75.2868C106.408 75.2868 106.058 79.7654 127.175 66.5044C148.291 53.2434 156.125 34.6956 155.731 21.4128C155.337 8.12994 145.162 -1.24231 131.573 0.134031Z" fill="white"/>
<path d="M169.43 13.0673C172.572 13.0673 175.119 10.5242 175.119 7.38714C175.119 4.25008 172.572 1.70699 169.43 1.70699C166.287 1.70699 163.74 4.25008 163.74 7.38714C163.74 10.5242 166.287 13.0673 169.43 13.0673Z" fill="white"/>
<path d="M174.2 27.0055C177.342 27.0055 179.889 24.4624 179.889 21.3254C179.889 18.1883 177.342 15.6452 174.2 15.6452C171.058 15.6452 168.51 18.1883 168.51 21.3254C168.51 24.4624 171.058 27.0055 174.2 27.0055Z" fill="white"/>
<path d="M131.573 0.134031C117.984 1.51038 115.859 8.46893 112.926 14.3239L121.528 15.1196C116.753 7.16193 151.048 -7.29386 145.534 26.4812C140.02 60.2562 106.408 75.2868 106.408 75.2868C106.408 75.2868 106.058 79.7654 127.175 66.5044C148.291 53.2434 156.125 34.6956 155.731 21.4128C155.337 8.12994 145.162 -1.24231 131.573 0.134031Z" fill="white"/>
<path d="M169.43 13.0673C172.572 13.0673 175.119 10.5242 175.119 7.38714C175.119 4.25008 172.572 1.70699 169.43 1.70699C166.287 1.70699 163.74 4.25008 163.74 7.38714C163.74 10.5242 166.287 13.0673 169.43 13.0673Z" fill="white"/>
<path d="M174.2 27.0055C177.342 27.0055 179.889 24.4624 179.889 21.3254C179.889 18.1883 177.342 15.6452 174.2 15.6452C171.058 15.6452 168.51 18.1883 168.51 21.3254C168.51 24.4624 171.058 27.0055 174.2 27.0055Z" fill="white"/>
<path d="M116.872 24.0926C120.014 24.0926 122.561 21.5495 122.561 18.4125C122.561 15.2754 120.014 12.7323 116.872 12.7323C113.73 12.7323 111.183 15.2754 111.183 18.4125C111.183 21.5495 113.73 24.0926 116.872 24.0926Z" fill="white"/>
<path fill-rule="evenodd" clip-rule="evenodd" d="M40.7486 21.7256L91.683 14.8679L90.8936 9.00516L37.3915 16.2086C35.9218 16.4064 34.8258 17.6621 34.8284 19.1451L35.0138 125.697C35.0022 129.539 33.4706 133.222 30.7526 135.94C28.0241 138.669 24.3234 140.202 20.4648 140.202C16.6061 140.202 12.9055 138.669 10.177 135.94C7.46195 133.225 5.93079 129.547 5.91579 125.709L5.97172 125.709C5.95818 121.493 6.94362 117.593 8.54738 114.859C10.1728 112.088 11.9809 111.187 13.2843 111.183C14.5877 111.178 16.4016 112.068 18.0448 114.828C19.666 117.552 20.6765 121.445 20.69 125.662L26.6057 125.643C26.5895 120.598 25.3975 115.615 23.1281 111.803C20.8806 108.027 17.4344 105.254 13.2653 105.267C9.09626 105.28 5.66789 108.075 3.44469 111.866C1.21109 115.674 0.0515151 120.633 0.055919 125.652H0C0 131.08 2.1561 136.285 5.99399 140.123C9.83189 143.961 15.0372 146.117 20.4648 146.117C25.8924 146.117 31.0977 143.961 34.9356 140.123C38.756 136.303 40.9099 131.127 40.9294 125.726H40.9296L40.9295 125.706L40.9295 125.693L40.9296 125.652H40.9294L40.7981 50.196L80.5232 45.1097L79.7719 39.2419L40.7877 44.2333L40.7486 21.7256Z" fill="white"/>
<path fill-rule="evenodd" clip-rule="evenodd" d="M104.406 7.99403L104.591 114.512H104.591L104.591 114.552L104.591 114.565L104.591 114.586H104.591C104.572 119.986 102.418 125.162 98.5972 128.982C94.7593 132.82 89.554 134.976 84.1264 134.976C78.6988 134.976 73.4935 132.82 69.6556 128.982C65.8177 125.145 63.6616 119.939 63.6616 114.512H63.7175C63.7131 109.492 64.8727 104.533 67.1063 100.725C69.3295 96.9347 72.7579 94.1396 76.927 94.1262C81.096 94.1128 84.5423 96.8859 86.7898 100.662C89.0591 104.475 90.2511 109.457 90.2673 114.502L84.3517 114.521C84.3381 110.305 83.3277 106.411 81.7064 103.688C80.0632 100.927 78.2493 100.038 76.9459 100.042C75.6425 100.046 73.8344 100.947 72.209 103.718C70.6052 106.452 69.6198 110.352 69.6333 114.568L69.5774 114.569C69.5924 118.407 71.1236 122.084 73.8386 124.799C76.5671 127.528 80.2677 129.061 84.1264 129.061C87.9851 129.061 91.6857 127.528 94.4142 124.799C97.1322 122.081 98.6637 118.399 98.6754 114.556L98.49 8.00433L104.406 7.99403Z" fill="white"/>
</svg>
